<mxfile host="app.diagrams.net" modified="2024-03-06T08:26:16.472Z" agent="Mozilla/5.0 (Macintosh; Intel Mac OS X 10_15_7) AppleWebKit/537.36 (KHTML, like Gecko) Chrome/116.0.0.0 Safari/537.36" etag="Kcn0pJetWbc2gP4y5CSy" version="24.0.2" type="device">
  <diagram name="페이지-1" id="9qKLikSNNqAhNNHYjEfa">
    <mxGraphModel dx="1083" dy="957" grid="1" gridSize="10" guides="1" tooltips="1" connect="1" arrows="1" fold="1" page="1" pageScale="1" pageWidth="827" pageHeight="1169" math="0" shadow="0">
      <root>
        <mxCell id="0" />
        <mxCell id="1" parent="0" />
        <mxCell id="gicYj6no74cBGJObSY1u-30" value="" style="rounded=0;whiteSpace=wrap;html=1;" vertex="1" parent="1">
          <mxGeometry x="430" y="490" width="210" height="200" as="geometry" />
        </mxCell>
        <mxCell id="gicYj6no74cBGJObSY1u-1" value="시작" style="rounded=1;whiteSpace=wrap;html=1;" vertex="1" parent="1">
          <mxGeometry x="470" y="140" width="120" height="60" as="geometry" />
        </mxCell>
        <mxCell id="gicYj6no74cBGJObSY1u-2" value="입력모듈" style="rounded=0;whiteSpace=wrap;html=1;" vertex="1" parent="1">
          <mxGeometry x="470" y="280" width="120" height="60" as="geometry" />
        </mxCell>
        <mxCell id="gicYj6no74cBGJObSY1u-3" value="" style="endArrow=classic;html=1;rounded=0;exitX=0.5;exitY=1;exitDx=0;exitDy=0;entryX=0.5;entryY=0;entryDx=0;entryDy=0;" edge="1" parent="1" source="gicYj6no74cBGJObSY1u-1" target="gicYj6no74cBGJObSY1u-2">
          <mxGeometry width="50" height="50" relative="1" as="geometry">
            <mxPoint x="730" y="500" as="sourcePoint" />
            <mxPoint x="780" y="450" as="targetPoint" />
          </mxGeometry>
        </mxCell>
        <mxCell id="gicYj6no74cBGJObSY1u-5" value="" style="curved=1;endArrow=classic;html=1;rounded=0;exitX=1;exitY=0.5;exitDx=0;exitDy=0;" edge="1" parent="1" source="gicYj6no74cBGJObSY1u-2">
          <mxGeometry width="50" height="50" relative="1" as="geometry">
            <mxPoint x="730" y="500" as="sourcePoint" />
            <mxPoint x="530" y="230" as="targetPoint" />
            <Array as="points">
              <mxPoint x="680" y="260" />
              <mxPoint x="680" y="210" />
            </Array>
          </mxGeometry>
        </mxCell>
        <mxCell id="gicYj6no74cBGJObSY1u-6" value="if: 짝을 이루지 않는 입력" style="text;html=1;align=center;verticalAlign=middle;resizable=0;points=[];autosize=1;strokeColor=none;fillColor=none;" vertex="1" parent="1">
          <mxGeometry x="610" y="270" width="140" height="30" as="geometry" />
        </mxCell>
        <mxCell id="gicYj6no74cBGJObSY1u-7" value="" style="endArrow=classic;html=1;rounded=0;exitX=0.5;exitY=1;exitDx=0;exitDy=0;" edge="1" parent="1" source="gicYj6no74cBGJObSY1u-2">
          <mxGeometry width="50" height="50" relative="1" as="geometry">
            <mxPoint x="730" y="500" as="sourcePoint" />
            <mxPoint x="530" y="390" as="targetPoint" />
          </mxGeometry>
        </mxCell>
        <mxCell id="gicYj6no74cBGJObSY1u-8" value="파싱모듈" style="rounded=0;whiteSpace=wrap;html=1;" vertex="1" parent="1">
          <mxGeometry x="470" y="390" width="120" height="60" as="geometry" />
        </mxCell>
        <mxCell id="gicYj6no74cBGJObSY1u-9" value="arg: 입력 스트링" style="text;html=1;align=center;verticalAlign=middle;resizable=0;points=[];autosize=1;strokeColor=none;fillColor=none;" vertex="1" parent="1">
          <mxGeometry x="530" y="348" width="100" height="30" as="geometry" />
        </mxCell>
        <mxCell id="gicYj6no74cBGJObSY1u-10" value="" style="curved=1;endArrow=classic;html=1;rounded=0;exitX=1;exitY=0.5;exitDx=0;exitDy=0;" edge="1" parent="1">
          <mxGeometry width="50" height="50" relative="1" as="geometry">
            <mxPoint x="590" y="413" as="sourcePoint" />
            <mxPoint x="540" y="230" as="targetPoint" />
            <Array as="points">
              <mxPoint x="680" y="363" />
              <mxPoint x="930" y="240" />
            </Array>
          </mxGeometry>
        </mxCell>
        <mxCell id="gicYj6no74cBGJObSY1u-11" value="if: 잘못된 문법" style="text;html=1;align=center;verticalAlign=middle;resizable=0;points=[];autosize=1;strokeColor=none;fillColor=none;" vertex="1" parent="1">
          <mxGeometry x="680" y="340" width="90" height="30" as="geometry" />
        </mxCell>
        <mxCell id="gicYj6no74cBGJObSY1u-12" value="로더모듈" style="rounded=0;whiteSpace=wrap;html=1;" vertex="1" parent="1">
          <mxGeometry x="470" y="610" width="120" height="60" as="geometry" />
        </mxCell>
        <mxCell id="gicYj6no74cBGJObSY1u-13" value="" style="endArrow=classic;html=1;rounded=0;exitX=0.5;exitY=1;exitDx=0;exitDy=0;" edge="1" parent="1">
          <mxGeometry width="50" height="50" relative="1" as="geometry">
            <mxPoint x="529" y="450" as="sourcePoint" />
            <mxPoint x="529" y="500" as="targetPoint" />
          </mxGeometry>
        </mxCell>
        <mxCell id="gicYj6no74cBGJObSY1u-14" value="arg: AST" style="text;html=1;align=center;verticalAlign=middle;resizable=0;points=[];autosize=1;strokeColor=none;fillColor=none;" vertex="1" parent="1">
          <mxGeometry x="530" y="460" width="70" height="30" as="geometry" />
        </mxCell>
        <mxCell id="gicYj6no74cBGJObSY1u-15" value="" style="curved=1;endArrow=classic;html=1;rounded=0;exitX=1;exitY=0.5;exitDx=0;exitDy=0;" edge="1" parent="1" source="gicYj6no74cBGJObSY1u-25">
          <mxGeometry width="50" height="50" relative="1" as="geometry">
            <mxPoint x="590" y="533" as="sourcePoint" />
            <mxPoint x="540" y="230" as="targetPoint" />
            <Array as="points">
              <mxPoint x="840" y="530" />
              <mxPoint x="910" y="410" />
              <mxPoint x="880" y="290" />
            </Array>
          </mxGeometry>
        </mxCell>
        <mxCell id="gicYj6no74cBGJObSY1u-20" value="종료" style="rounded=1;whiteSpace=wrap;html=1;" vertex="1" parent="1">
          <mxGeometry x="110" y="340" width="120" height="60" as="geometry" />
        </mxCell>
        <mxCell id="gicYj6no74cBGJObSY1u-21" value="" style="endArrow=classic;html=1;rounded=0;entryX=1;entryY=0.5;entryDx=0;entryDy=0;exitX=0;exitY=0.5;exitDx=0;exitDy=0;" edge="1" parent="1" source="gicYj6no74cBGJObSY1u-2" target="gicYj6no74cBGJObSY1u-20">
          <mxGeometry width="50" height="50" relative="1" as="geometry">
            <mxPoint x="390" y="520" as="sourcePoint" />
            <mxPoint x="440" y="470" as="targetPoint" />
          </mxGeometry>
        </mxCell>
        <mxCell id="gicYj6no74cBGJObSY1u-22" value="" style="endArrow=classic;html=1;rounded=0;exitX=0;exitY=0.5;exitDx=0;exitDy=0;entryX=1;entryY=0.5;entryDx=0;entryDy=0;" edge="1" parent="1" source="gicYj6no74cBGJObSY1u-12" target="gicYj6no74cBGJObSY1u-20">
          <mxGeometry width="50" height="50" relative="1" as="geometry">
            <mxPoint x="480" y="320" as="sourcePoint" />
            <mxPoint x="240" y="380" as="targetPoint" />
          </mxGeometry>
        </mxCell>
        <mxCell id="gicYj6no74cBGJObSY1u-23" value="if: Ctrl+D 입력" style="text;html=1;align=center;verticalAlign=middle;resizable=0;points=[];autosize=1;strokeColor=none;fillColor=none;" vertex="1" parent="1">
          <mxGeometry x="300" y="310" width="90" height="30" as="geometry" />
        </mxCell>
        <mxCell id="gicYj6no74cBGJObSY1u-24" value="if: exit builtin" style="text;html=1;align=center;verticalAlign=middle;resizable=0;points=[];autosize=1;strokeColor=none;fillColor=none;" vertex="1" parent="1">
          <mxGeometry x="280" y="440" width="90" height="30" as="geometry" />
        </mxCell>
        <mxCell id="gicYj6no74cBGJObSY1u-25" value="전처리모듈" style="rounded=0;whiteSpace=wrap;html=1;" vertex="1" parent="1">
          <mxGeometry x="470" y="500" width="120" height="60" as="geometry" />
        </mxCell>
        <mxCell id="gicYj6no74cBGJObSY1u-26" value="" style="endArrow=classic;html=1;rounded=0;exitX=0.5;exitY=1;exitDx=0;exitDy=0;entryX=0.5;entryY=0;entryDx=0;entryDy=0;" edge="1" parent="1" source="gicYj6no74cBGJObSY1u-25" target="gicYj6no74cBGJObSY1u-12">
          <mxGeometry width="50" height="50" relative="1" as="geometry">
            <mxPoint x="539" y="460" as="sourcePoint" />
            <mxPoint x="539" y="510" as="targetPoint" />
          </mxGeometry>
        </mxCell>
        <mxCell id="gicYj6no74cBGJObSY1u-27" value="arg: 실행정보" style="text;html=1;align=center;verticalAlign=middle;resizable=0;points=[];autosize=1;strokeColor=none;fillColor=none;" vertex="1" parent="1">
          <mxGeometry x="530" y="570" width="90" height="30" as="geometry" />
        </mxCell>
        <mxCell id="gicYj6no74cBGJObSY1u-28" value="if: 모든 커맨드 실행" style="text;html=1;align=center;verticalAlign=middle;resizable=0;points=[];autosize=1;strokeColor=none;fillColor=none;" vertex="1" parent="1">
          <mxGeometry x="680" y="510" width="120" height="30" as="geometry" />
        </mxCell>
        <mxCell id="gicYj6no74cBGJObSY1u-29" value="" style="endArrow=classic;html=1;rounded=0;exitX=1;exitY=0.5;exitDx=0;exitDy=0;entryX=1;entryY=0.75;entryDx=0;entryDy=0;" edge="1" parent="1" source="gicYj6no74cBGJObSY1u-12" target="gicYj6no74cBGJObSY1u-25">
          <mxGeometry width="50" height="50" relative="1" as="geometry">
            <mxPoint x="540" y="570" as="sourcePoint" />
            <mxPoint x="540" y="620" as="targetPoint" />
            <Array as="points">
              <mxPoint x="650" y="600" />
            </Array>
          </mxGeometry>
        </mxCell>
      </root>
    </mxGraphModel>
  </diagram>
</mxfile>
